# xmcd
#
# Track frame offsets: 
#        182
#        9627
#        20632
#        28930
#        40480
#        51652
#        61130
#        69800
#        81395
#        95792
#
# Disc length: 1450 seconds
#
# Revision: 0
# Processed by: cddbd v1.5.2PL0 Copyright (c) Steve Scherf et al.
# Submitted via: ExactAudioCopy v0.99pb5
#
DISCID=8b05a80a
DTITLE=Dag Bergersen - Life Is What Happens
DYEAR=2006
DGENRE=Blues
TTITLE0=Long Live The Simple Songs
TTITLE1=I Don't Mind
TTITLE2=The sentimental
TTITLE3=Lucky
TTITLE4=Handshake In The Doorway
TTITLE5=Oh, Fred Astaire
TTITLE6=Station Under Ground
TTITLE7=Desert Rose
TTITLE8=Inbetween Everything
TTITLE9=Jeg Juger
EXTD=
EXTT0=
EXTT1=
EXTT2=
EXTT3=
EXTT4=
EXTT5=
EXTT6=
EXTT7=
EXTT8=
EXTT9=
PLAYORDER=
